<svg width="33" height="33" viewBox="0 0 33 33" fill="none" xmlns="http://www.w3.org/2000/svg">
<path d="M31.6719 12.0654H30.1419V15.1154H31.6719V12.0654Z" fill="#000001"/>
<path d="M30.1419 15.1154H28.6219V16.6354H30.1419V15.1154Z" fill="#000001"/>
<path d="M28.6219 16.6354H27.1019V18.1554H28.6219V16.6354Z" fill="#000001"/>
<path d="M30.1419 10.5454H27.1019V12.0654H30.1419V10.5454Z" fill="#000001"/>
<path d="M27.1019 12.0654H25.5719V13.5854H27.1019V12.0654Z" fill="#000001"/>
<path d="M27.1019 9.01537H25.5719V10.5454H27.1019V9.01537Z" fill="#000001"/>
<path d="M27.1019 18.1554H24.0519V19.6854H27.1019V18.1554Z" fill="#000001"/>
<path d="M25.5719 13.5854H24.0519V15.1154H25.5719V13.5854Z" fill="#000001"/>
<path d="M25.5719 7.49538H24.0519V9.01538H25.5719V7.49538Z" fill="#000001"/>
<path d="M24.0519 15.1154H22.5319V18.1554H24.0519V15.1154Z" fill="#000001"/>
<path d="M24.0519 5.96536H22.5319V7.49536H24.0519V5.96536Z" fill="#000001"/>
<path d="M22.5319 13.5854H21.0019V15.1154H22.5319V13.5854Z" fill="#000001"/>
<path d="M22.5319 4.44537H21.0019V5.96537H22.5319V4.44537Z" fill="#000001"/>
<path d="M21.0019 15.1154H19.4819V16.6354H21.0019V15.1154Z" fill="#000001"/>
<path d="M21.0019 2.92537H19.4819V4.44537H21.0019V2.92537Z" fill="#000001"/>
<path d="M17.9519 15.1154H16.4319V13.5854H14.9119V15.1154H13.3819V16.6354H14.9119V18.1554H13.3819V19.6854H11.8619V21.2054H10.3419V19.6854H8.81188V21.2054H7.29188V22.7354H5.76188V24.2554H4.24188V25.7754H2.72188V27.3054H1.19188V30.3554H2.72188V31.8754H5.76188V30.3554H7.29188V28.8254H8.81188V27.3054H10.3419V25.7754H11.8619V24.2554H13.3819V22.7354H14.9119V21.2054H16.4319V19.6854H17.9519V18.1554H19.4819V16.6354H17.9519V15.1154Z" fill="#000001"/>
<path d="M17.9519 10.5454H16.4319V13.5854H17.9519V10.5454Z" fill="#000001"/>
<path d="M19.4819 1.39537H14.9119V2.92537H19.4819V1.39537Z" fill="#000001"/>
<path d="M16.4319 9.01537H14.9119V10.5454H16.4319V9.01537Z" fill="#000001"/>
<path d="M14.9119 7.49538H11.8619V9.01538H14.9119V7.49538Z" fill="#000001"/>
<path d="M14.9119 2.92537H11.8619V4.44537H14.9119V2.92537Z" fill="#000001"/>
<path d="M13.3819 16.6354H11.8619V18.1554H13.3819V16.6354Z" fill="#000001"/>
<path d="M11.8619 18.1554H10.3419V19.6854H11.8619V18.1554Z" fill="#000001"/>
<path d="M11.8619 9.01537H10.3419V10.5454H11.8619V9.01537Z" fill="#000001"/>
<path d="M11.8619 4.44537H10.3419V5.96537H11.8619V4.44537Z" fill="#000001"/>
<path d="M10.3419 5.96536H8.81187V9.01536H10.3419V5.96536Z" fill="#000001"/>
</svg>
