<svg width="33" height="33" viewBox="0 0 33 33" fill="none" xmlns="http://www.w3.org/2000/svg">
<g clip-path="url(#clip0_1128_24567)">
<path d="M1.61523 17.3954H4.65523V15.8754H6.18523V14.3454H7.70523V12.8254H9.23523V11.3054H10.7552V9.77538H12.2752V8.25538H13.8052V6.72538H15.3252V5.20538H18.3752V6.72538H19.8952V8.25538H21.4252V9.77538H22.9452V11.3054H24.4652V12.8254H25.9952V14.3454H27.5152V15.8754H29.0352V17.3954H32.0852V14.3454H30.5652V12.8254H29.0352V11.3054H27.5152V9.77538H25.9952V8.25538H24.4652V6.72538H22.9452V5.20538H21.4252V3.68538H19.8952V2.15538H18.3752V0.635376H15.3252V2.15538H13.8052V3.68538H12.2752V5.20538H10.7552V6.72538H9.23523V8.25538H7.70523V9.77538H6.18523V11.3054H4.65523V12.8254H3.13523V14.3454H1.61523V17.3954Z" fill="#000001"/>
<path d="M27.5152 31.1154H21.4252V23.4954H19.8952V32.6354H29.0352V18.9154H27.5152V31.1154Z" fill="#000001"/>
<path d="M27.5152 17.3954H25.9952V18.9154H27.5152V17.3954Z" fill="#000001"/>
<path d="M25.9952 15.8754H24.4652V17.3954H25.9952V15.8754Z" fill="#000001"/>
<path d="M24.4652 14.3454H22.9452V15.8754H24.4652V14.3454Z" fill="#000001"/>
<path d="M22.9452 12.8254H21.4252V14.3454H22.9452V12.8254Z" fill="#000001"/>
<path d="M21.4252 11.3054H19.8952V12.8254H21.4252V11.3054Z" fill="#000001"/>
<path d="M19.8952 21.9654H18.3752V23.4954H19.8952V21.9654Z" fill="#000001"/>
<path d="M19.8952 9.77539H18.3752V11.3054H19.8952V9.77539Z" fill="#000001"/>
<path d="M18.3752 20.4454H15.3252V21.9654H18.3752V20.4454Z" fill="#000001"/>
<path d="M18.3752 8.25537H15.3252V9.77537H18.3752V8.25537Z" fill="#000001"/>
<path d="M15.3252 21.9654H13.8052V23.4954H15.3252V21.9654Z" fill="#000001"/>
<path d="M15.3252 9.77539H13.8052V11.3054H15.3252V9.77539Z" fill="#000001"/>
<path d="M13.8052 23.4954H12.2752V31.1154H6.18524V18.9154H4.65524V32.6354H13.8052V23.4954Z" fill="#000001"/>
<path d="M13.8052 11.3054H12.2752V12.8254H13.8052V11.3054Z" fill="#000001"/>
<path d="M12.2752 12.8254H10.7552V14.3454H12.2752V12.8254Z" fill="#000001"/>
<path d="M10.7552 14.3454H9.23523V15.8754H10.7552V14.3454Z" fill="#000001"/>
<path d="M9.23523 15.8754H7.70523V17.3954H9.23523V15.8754Z" fill="#000001"/>
<path d="M7.70524 17.3954H6.18524V18.9154H7.70524V17.3954Z" fill="#000001"/>
</g>
<defs>
<clipPath id="clip0_1128_24567">
<rect width="32" height="32" fill="white" transform="translate(0.85022 0.635376)"/>
</clipPath>
</defs>
</svg>
