<svg width="33" height="33" viewBox="0 0 33 33" fill="none" xmlns="http://www.w3.org/2000/svg">
<g clip-path="url(#clip0_1128_24520)">
<path d="M32.0135 12.8254H30.4935V20.4454H32.0135V12.8254Z" fill="#000001"/>
<path d="M30.4935 20.4454H28.9635V23.4954H30.4935V20.4454Z" fill="#000001"/>
<path d="M30.4935 9.77539H28.9635V12.8254H30.4935V9.77539Z" fill="#000001"/>
<path d="M28.9635 23.4954H27.4435V26.5354H28.9635V23.4954Z" fill="#000001"/>
<path d="M28.9635 6.7254H27.4435V9.7754H28.9635V6.7254Z" fill="#000001"/>
<path d="M27.4435 26.5354H25.9135V28.0654H27.4435V26.5354Z" fill="#000001"/>
<path d="M27.4435 5.20538H25.9135V6.72538H27.4435V5.20538Z" fill="#000001"/>
<path d="M25.9135 28.0654H22.8736V29.5854H25.9135V28.0654Z" fill="#000001"/>
<path d="M25.9135 3.68536H22.8736V5.20536H25.9135V3.68536Z" fill="#000001"/>
<path d="M22.8735 29.5854H19.8235V31.1154H22.8735V29.5854Z" fill="#000001"/>
<path d="M21.3436 23.4954H19.8236V15.8754H18.3036V14.3454H13.7236V15.8754H12.2036V26.5354H13.7236V28.0654H21.3436V26.5354H22.8736V25.0154H21.3436V23.4954Z" fill="#000001"/>
<path d="M22.8735 2.1554H19.8235V3.6854H22.8735V2.1554Z" fill="#000001"/>
<path d="M19.8236 31.1154H12.2036V32.6354H19.8236V31.1154Z" fill="#000001"/>
<path d="M13.7236 12.8254H18.3036V11.3054H19.8236V6.72538H18.3036V5.20538H13.7236V6.72538H12.2036V11.3054H13.7236V12.8254Z" fill="#000001"/>
<path d="M19.8236 0.635376H12.2036V2.15538H19.8236V0.635376Z" fill="#000001"/>
<path d="M12.2035 29.5854H9.15355V31.1154H12.2035V29.5854Z" fill="#000001"/>
<path d="M12.2035 2.1554H9.15355V3.6854H12.2035V2.1554Z" fill="#000001"/>
<path d="M9.15355 28.0654H6.10355V29.5854H9.15355V28.0654Z" fill="#000001"/>
<path d="M9.15355 3.68536H6.10355V5.20536H9.15355V3.68536Z" fill="#000001"/>
<path d="M6.10356 26.5354H4.58356V28.0654H6.10356V26.5354Z" fill="#000001"/>
<path d="M6.10356 5.20538H4.58356V6.72538H6.10356V5.20538Z" fill="#000001"/>
<path d="M4.58355 23.4954H3.06355V26.5354H4.58355V23.4954Z" fill="#000001"/>
<path d="M4.58355 6.7254H3.06355V9.7754H4.58355V6.7254Z" fill="#000001"/>
<path d="M3.06355 20.4454H1.53355V23.4954H3.06355V20.4454Z" fill="#000001"/>
<path d="M3.06355 9.77539H1.53355V12.8254H3.06355V9.77539Z" fill="#000001"/>
<path d="M1.53355 12.8254H0.0135498V20.4454H1.53355V12.8254Z" fill="#000001"/>
</g>
<defs>
<clipPath id="clip0_1128_24520">
<rect width="32" height="32" fill="white" transform="translate(0.0135498 0.635376)"/>
</clipPath>
</defs>
</svg>
