<svg width="33" height="33" viewBox="0 0 33 33" fill="none" xmlns="http://www.w3.org/2000/svg">
<g clip-path="url(#clip0_1128_24548)">
<path d="M32.4319 12.8304H30.9119V20.4504H32.4319V12.8304Z" fill="#000001"/>
<path d="M30.9119 20.4504H29.3819V21.9704H30.9119V20.4504Z" fill="#000001"/>
<path d="M30.9119 11.3004H29.3819V12.8304H30.9119V11.3004Z" fill="#000001"/>
<path d="M29.3819 14.3504H27.8619V18.9204H29.3819V14.3504Z" fill="#000001"/>
<path d="M29.3819 21.9704H20.2419V23.4904H29.3819V21.9704Z" fill="#000001"/>
<path d="M29.3819 9.7804H20.2419V11.3004H29.3819V9.7804Z" fill="#000001"/>
<path d="M20.2419 20.4504H18.7219V21.9704H20.2419V20.4504Z" fill="#000001"/>
<path d="M21.7719 18.9204V20.4504H27.8619V18.9204H23.2919V17.4004H24.8119V15.8704H23.2919V14.3504H27.8619V12.8304H21.7719V14.3504H18.7219V12.8304H17.1919V14.3504H15.6719V12.8304H14.1519V14.3504H11.1019V12.8304H5.00189V14.3504H9.58189V15.8704H8.05189V17.4004H9.58189V18.9204H5.00189V20.4504H11.1019V18.9204H14.1519V20.4504H15.6719V18.9204H17.1919V20.4504H18.7219V18.9204H21.7719Z" fill="#000001"/>
<path d="M20.2419 11.3004H18.7219V12.8304H20.2419V11.3004Z" fill="#000001"/>
<path d="M14.1519 20.4504H12.6219V21.9704H14.1519V20.4504Z" fill="#000001"/>
<path d="M14.1519 11.3004H12.6219V12.8304H14.1519V11.3004Z" fill="#000001"/>
<path d="M12.6219 21.9704H3.48189V23.4904H12.6219V21.9704Z" fill="#000001"/>
<path d="M12.6219 9.7804H3.48189V11.3004H12.6219V9.7804Z" fill="#000001"/>
<path d="M5.00189 14.3504H3.48189V18.9204H5.00189V14.3504Z" fill="#000001"/>
<path d="M3.48188 20.4504H1.96188V21.9704H3.48188V20.4504Z" fill="#000001"/>
<path d="M3.48188 11.3004H1.96188V12.8304H3.48188V11.3004Z" fill="#000001"/>
<path d="M1.96188 12.8304H0.431885V20.4504H1.96188V12.8304Z" fill="#000001"/>
</g>
<defs>
<clipPath id="clip0_1128_24548">
<rect width="32" height="32" fill="white" transform="translate(0.431885 0.635376)"/>
</clipPath>
</defs>
</svg>
